# AST/ASF file generated using VICON BodyLanguage
# -----------------------------------------------
:version 1.10
:name VICON
:units
  mass 1.0
  length 0.45
  angle deg
:documentation
   .ast/.asf automatically generated from VICON data using
   VICON BodyBuilder and BodyLanguage model FoxedUp or BRILLIANT.MOD
:root
   order TX TY TZ RX RY RZ
   axis XYZ
   position 0 0 0  
   orientation 0 0 0 
:bonedata
  begin
     id 1 
     name lhipjoint
     direction 0.54267 -0.795011 0.271047 
     length 2.39899 
     axis 0 0 0  XYZ
  end
  begin
     id 2 
     name lfemur
     direction 0.34202 -0.939693 0  
     length 7.49701  
     axis 0 0 20  XYZ
    dof rx ry rz
    limits (-160.0 20.0)
           (-70.0 70.0)
           (-60.0 70.0)
  end
  begin
     id 3 
     name ltibia
     direction 0.34202 -0.939693 0   
     length 8.1668   
     axis 0 0 20   XYZ
    dof rx
    limits (-10.0 170.0)
  end
  begin
     id 4 
     name lfoot
     direction 0.0736283 -0.202292 0.976554   
     length 2.13544   
     axis -90 7.62852e-016 20   XYZ
    dof rx rz
    limits (-45.0 90.0)
           (-70.0 20.0)
  end
  begin
     id 5 
     name ltoes
     direction 1.53557e-011 -4.22024e-011 1   
     length 1.07411   
     axis -90 7.62852e-016 20   XYZ
    dof rx
    limits (-90.0 20.0)
  end
  begin
     id 6 
     name rhipjoint
     direction -0.538061 -0.797813 0.272002   
     length 2.39057  
     axis 0 0 0  XYZ 
  end
  begin
     id 7 
     name rfemur
     direction -0.34202 -0.939693 0   
     length 7.50152   
     axis 0 0 -20   XYZ
    dof rx ry rz
    limits (-160.0 20.0)
           (-70.0 70.0)
           (-70.0 60.0)
  end
  begin
     id 8 
     name rtibia
     direction -0.34202 -0.939693 0   
     length 8.05793   
     axis 0 0 -20   XYZ
    dof rx
    limits (-10.0 170.0)
 end
 begin
     id 9 
     name rfoot
     direction -0.0765195 -0.210236 0.974652   
     length 2.28698  
     axis -90 -7.62852e-016 -20   XYZ
    dof rx rz
    limits (-45.0 90.0)
           (-20.0 70.0)
  end
  begin
     id 10 
     name rtoes
     direction -1.53542e-011 -4.21847e-011 1   
     length 1.14762   
     axis -90 -7.62852e-016 -20   XYZ
    dof rx
    limits (-90.0 20.0)
  end
  begin
     id 11 
     name lowerback
     direction -0.0217239 0.996592 -0.0795765   
     length 2.08176   
     axis 0 0 0   XYZ
    dof rx ry rz
    limits (-20.0 45.0)
           (-30.0 30.0)
           (-30.0 30.0)
  end
  begin
     id 12 
     name upperback
     direction -0.00563773 0.999651 -0.0258155   
     length 2.08898   
     axis 0 0 0   XYZ
    dof rx ry rz
    limits (-20.0 45.0)
           (-30.0 30.0)
           (-30.0 30.0)
  end
  begin
     id 13 
     name thorax
     direction 0.0032706 0.999923 0.0119599   
     length 2.0968   
     axis 0 0 0   XYZ
    dof rx ry rz
    limits (-20.0 45.0)
           (-30.0 30.0)
           (-30.0 30.0)
  end
  begin
     id 14 
     name lowerneck
     direction -0.0285886 0.99568 0.0883427   
     length 1.81272   
     axis 0 0 0   XYZ
    dof rx ry rz
    limits (-20.0 45.0)
           (-30.0 30.0)
           (-30.0 30.0)
  end
  begin
     id 15 
     name upperneck
     direction 0.0807535 0.97985 -0.18268   
     length 1.82518   
     axis 0 0 0   XYZ
    dof rx ry rz
    limits (-20.0 45.0)
           (-30.0 30.0)
           (-30.0 30.0)
  end
  begin
     id 16
     name head
     direction 0.0236605 0.997053 -0.0729767  
     length 1.84443  
     axis 0 0 0   XYZ
    dof rx ry rz
    limits (-20.0 45.0)
           (-30.0 30.0)
           (-30.0 30.0)
  end
  begin
     id 17 
     name lclavicle
     direction 0.918986 0.39378 -0.0200683  
     length 3.27822  
     axis 0 0 0   XYZ
    dof ry rz
    limits (-20.0 10.0)
           (0.0 20.0)
  end
  begin
     id 18 
     name lhumerus
     direction 1 -4.4897e-011 2.09544e-027   
     length 5.5568   
     axis 180 -30 -90   XYZ
    dof rx ry rz
    limits (-60.0 90.0)
           (-90.0 90.0)
           (-90.0 90.0)
  end
  begin
     id 19
     name lradius
     direction 1 -4.48957e-011 -1.27696e-026   
     length 3.63979   
     axis 180 -30 -90   XYZ
    dof rx
    limits (-10.0 170.0)
  end
  begin
     id 20
     name lwrist
     direction 1 -4.49001e-011 -1.49001e-026   
     length 1.8199   
     axis 9.0955e-015 90 90   XYZ
    dof ry
    limits (-180.0 0.0)
 end
  begin
     id 21 
     name lhand
     direction 1 -4.48709e-011 -2.9758e-026   
     length 0.569419   
     axis 1.90115e-014 90 90   XYZ
    dof rx rz
    limits (-90.0 90.0)
           (-45.0 45.0)
  end
  begin
     id 22 
     name lfingers
     direction 1 -4.49175e-011 -5.96505e-026   
     length 0.45908   
     axis 3.80223e-014 90 90   XYZ
    dof rx
    limits (0.0 90.0)
  end
  begin
     id 23
     name lthumb
     direction 0.707107 -6.34864e-011 0.707107   
     length 0.65915   
     axis -90 45 -3.84942e-014   XYZ
    dof rx rz
    limits (-45.0 45.0)
           (-45.0 45.0)
  end
  begin
     id 24 
     name rclavicle
     direction -0.911913 0.396426 -0.106115   
     length 3.46301  
     axis 0 0 0   XYZ 
    dof ry rz
    limits (-10.0 20.0)
           (-20.0 0.0)
  end
  begin
     id 25 
     name rhumerus
     direction -1 -4.48965e-011 7.78516e-028  
     length 5.34339   
     axis 180 30 90   XYZ
    dof rx ry rz
    limits (-90.0 60.0)
           (-90.0 90.0)
           (-90.0 90.0)
  end
  begin
     id 26 
     name rradius
     direction -1 -4.48948e-011 -5.79823e-027   
     length 3.65101   
     axis 180 30 90   XYZ
    dof rx
    limits (-10.0 170.0)
  end
  begin
     id 27 
     name rwrist
     direction -1 -4.48995e-011 -1.48996e-026   
     length 1.8255   
     axis 9.0955e-015 -90 -90   XYZ
    dof ry
    limits (-180.0 0.0)
  end
  begin
     id 28
     name rhand
     direction -1 -4.48957e-011 -2.97937e-026   
     length 0.694249   
     axis 1.90115e-014 -90 -90   XYZ
    dof rx rz
    limits (-90.0 90.0)
           (-45.0 45.0)
  end
  begin
     id 29
     name rfingers
     direction -1 -4.4898e-011 -5.95943e-026   
     length 0.559721   
     axis 3.80223e-014 -90 -90   XYZ
    dof rx
    limits (0.0 90.0)
  end
  begin
     id 30
     name rthumb
     direction -0.707107 -6.34969e-011 0.707107   
     length 0.803651   
     axis -90 -45 3.84942e-014   XYZ
    dof rx rz
    limits (-45.0 45.0)
           (-45.0 45.0)
  end
:hierarchy
  begin
    root lhipjoint rhipjoint lowerback
    lhipjoint lfemur
    lfemur ltibia
    ltibia lfoot
    lfoot ltoes
    rhipjoint rfemur
    rfemur rtibia
    rtibia rfoot
    rfoot rtoes
    lowerback upperback
    upperback thorax
    thorax lowerneck lclavicle rclavicle
    lowerneck upperneck
    upperneck head
    lclavicle lhumerus
    lhumerus lradius
    lradius lwrist
    lwrist lhand lthumb
    lhand lfingers
    rclavicle rhumerus
    rhumerus rradius
    rradius rwrist
    rwrist rhand rthumb
    rhand rfingers
  end

#!OML:ASF H:\Terrain\Walking\May29\JustinRory\rory.ASF
:FULLY-SPECIFIED
:DEGREES
326
root 10.7398 18.4431 -12.7455 0.676803 -5.99573 -0.330767
lowerback -1.37162 -0.620803 -7.23962
upperback 0.777197 -0.609052 -5.41546
thorax 1.59355 -0.354162 -1.55331
lowerneck -0.500973 -12.9415 -17.9791
upperneck 6.39224 -17.6281 10.5549
head 4.5138 -8.88458 4.9454
rclavicle 1.4064e-014 6.36111e-014
rhumerus 15.3044 -50.4985 -15.3484
rradius 22.3977
rwrist 6.99334
rhand -31.106 38.4416
rfingers 7.12502
rthumb -4.38546 8.50704
lclavicle 1.4064e-014 6.36111e-014
lhumerus 7.87377 20.8314 0.808268
lradius 42.4376
lwrist 26.6811
lhand -25.0749 19.2127
lfingers 7.12502
lthumb 1.43919 49.1876
rfemur -0.721353 10.5524 13.3394
rtibia 2.84995
rfoot -0.587676 -8.81702
rtoes -1.59023
lfemur 1.86024 -5.74141 -17.2315
ltibia 12.3571
lfoot -14.9189 9.49193
ltoes -3.40653
327
root 10.7413 18.4446 -12.7473 0.666564 -5.82591 0.00352912
lowerback -1.23024 -0.642684 -7.41771
upperback 0.67405 -0.658796 -5.55165
thorax 1.40908 -0.374489 -1.59469
lowerneck -0.489448 -12.6823 -17.6297
upperneck 6.59408 -17.2657 10.1817
head 4.45869 -8.71295 4.82573
rclavicle 6.90777e-015 -2.38542e-014
rhumerus 14.8061 -50.8383 -14.8631
rradius 22.4126
rwrist 6.13776
rhand -31.0266 38.2043
rfingers 7.12502
rthumb -4.30881 8.26809
lclavicle 6.90777e-015 -2.38542e-014
lhumerus 7.84497 21.0501 0.748178
lradius 42.0431
lwrist 26.1913
lhand -25.6578 18.921
lfingers 7.12502
lthumb 0.876256 48.899
rfemur -0.652165 10.3713 12.9619
rtibia 2.7764
rfoot -0.545158 -8.82994
rtoes -1.53588
lfemur 1.78736 -5.77262 -17.5841
ltibia 12.356
lfoot -14.8217 9.36104
ltoes -3.94182
328
root 10.7407 18.445 -12.7493 0.704385 -5.70543 0.18331
lowerback -1.18045 -0.64019 -7.45641
upperback 0.636362 -0.662991 -5.6551
thorax 1.34141 -0.374421 -1.67985
lowerneck -0.790157 -12.499 -17.2382
upperneck 6.93296 -16.9601 9.78185
head 4.50061 -8.56094 4.65938
rclavicle -1.27222e-014 -9.54166e-015
rhumerus 14.0878 -50.9519 -14.2812
rradius 22.8198
rwrist 4.96835
rhand -31.1136 37.628
rfingers 7.12502
rthumb -4.39281 7.69357
lclavicle -1.27222e-014 -9.54166e-015
lhumerus 7.87045 21.5525 0.843004
lradius 41.9367
lwrist 25.7283
lhand -26.4082 19.0631
lfingers 7.12502
lthumb 0.151472 49.0428
rfemur -0.709314 10.2401 12.7684
rtibia 2.89707
rfoot -0.556113 -8.88341
rtoes -1.78675
lfemur 1.71734 -5.80592 -17.7544
ltibia 12.2837
lfoot -14.6969 9.28021
ltoes -4.09829
329
root 10.7352 18.4462 -12.753 0.727442 -5.70884 0.110555
lowerback -1.15073 -0.636713 -7.36868
upperback 0.723343 -0.655827 -5.61677
thorax 1.41401 -0.373015 -1.68888
lowerneck -1.49641 -12.2618 -16.9903
upperneck 7.35358 -16.5405 9.63337
head 4.65528 -8.338 4.57175
rclavicle -1.72446e-014 -3.33958e-014
rhumerus 13.8647 -51.3536 -14.1682
rradius 23.4191
rwrist 4.03432
rhand -31.7647 37.1291
rfingers 7.12502
rthumb -5.02158 7.20859
lclavicle -1.72446e-014 -3.33958e-014
lhumerus 8.1467 23.0935 1.58084
lradius 41.7258
lwrist 24.3693
lhand -26.3038 19.026
lfingers 7.12502
lthumb 0.25236 49.0056
rfemur -0.765918 10.2418 12.8621
rtibia 2.95629
rfoot -0.581801 -8.86544
rtoes -1.30098
lfemur 1.73107 -5.79631 -17.6498
ltibia 12.2103
lfoot -14.5978 9.29339
ltoes -3.70396
330
root 10.7326 18.4456 -12.7568 0.736457 -5.71108 0.136058
lowerback -1.05605 -0.634313 -7.38394
upperback 0.772946 -0.659502 -5.56849
thorax 1.41293 -0.375832 -1.62966
lowerneck -2.27284 -11.9275 -16.8717
upperneck 7.85234 -15.9901 9.59514
head 4.85045 -8.04971 4.54574
rclavicle -2.38542e-015 -1.59028e-015
rhumerus 13.0843 -50.8484 -13.4653
rradius 24.3839
rwrist 2.39405
rhand -32.2579 36.9553
rfingers 7.12502
rthumb -5.49777 7.04663
lclavicle -2.38542e-015 -1.59028e-015
lhumerus 8.88063 25.0089 3.18659
lradius 41.4711
lwrist 22.5312
lhand -25.8528 18.5991
lfingers 7.12502
lthumb 0.687902 48.5777
rfemur -0.754724 10.2391 12.828
rtibia 2.85512
rfoot -0.517241 -8.84744
rtoes -0.596026
lfemur 1.74407 -5.72148 -17.6645
ltibia 12.1708
lfoot -14.5311 9.26987
ltoes -3.80775
331
root 10.7337 18.4434 -12.7609 0.75304 -5.68392 0.138706
lowerback -0.935823 -0.605647 -7.32031
upperback 0.776583 -0.636496 -5.53006
thorax 1.34789 -0.362504 -1.62264
lowerneck -2.94435 -11.645 -16.6226
upperneck 8.40065 -15.506 9.27082
head 5.02049 -7.80491 4.41454
rclavicle 1.13804e-014 -4.77083e-015
rhumerus 11.7113 -49.6099 -12.133
rradius 25.5144
rwrist 0.256797
rhand -31.9518 37.504
rfingers 7.12502
rthumb -5.20216 7.58786
lclavicle 1.13804e-014 -4.77083e-015
lhumerus 7.11394 23.696 1.78712
lradius 43.3998
lwrist 25.2874
lhand -26.0572 18.8398
lfingers 7.12502
lthumb 0.490458 48.819
rfemur -0.881975 10.2093 12.8191
rtibia 3.03175
rfoot -0.57916 -8.87029
rtoes -0.588537
lfemur 1.77719 -5.82641 -17.6834
ltibia 12.0649
lfoot -14.5469 9.31977
ltoes -4.06034
332
root 10.7329 18.4432 -12.7638 0.793145 -5.62448 0.197266
lowerback -0.956004 -0.610845 -7.34121
upperback 0.836093 -0.6353 -5.52523
thorax 1.42133 -0.364527 -1.60709
lowerneck -3.43704 -11.3738 -16.2746
upperneck 8.75071 -15.062 8.93756
head 5.09974 -7.58121 4.2782
rclavicle -3.47873e-015 -3.81667e-014
rhumerus 10.4673 -48.3402 -10.979
rradius 26.6605
rwrist -1.69654
rhand -31.4973 38.1898
rfingers 7.12502
rthumb -4.76339 8.26331
lclavicle -3.47873e-015 -3.81667e-014
lhumerus 5.54532 22.6585 0.676632
lradius 45.4037
lwrist 27.8191
lhand -26.4505 18.9756
lfingers 7.12502
lthumb 0.110671 48.9553
rfemur -0.952523 10.142 12.7583
rtibia 3.12173
rfoot -0.591783 -8.89033
rtoes -0.872311
lfemur 1.77865 -6.01309 -17.7595
ltibia 11.9601
lfoot -14.5453 9.39984
ltoes -3.76466
333
root 10.7324 18.4466 -12.7646 0.863254 -5.60403 0.420635
lowerback -1.16727 -0.630914 -7.52588
upperback 0.950373 -0.622607 -5.59191
thorax 1.66061 -0.366838 -1.5788
lowerneck -3.72664 -11.0469 -15.9883
upperneck 8.77124 -14.5964 8.94826
head 5.07435 -7.33691 4.2774
rclavicle -1.78906e-014 -7.95139e-014
rhumerus 9.22496 -46.8891 -9.99888
rradius 28.1521
rwrist -3.7529
rhand -31.2029 38.2314
rfingers 7.12502
rthumb -4.47903 8.29873
lclavicle -1.78906e-014 -7.95139e-014
lhumerus 4.50235 22.6996 0.321714
lradius 47.155
lwrist 28.8249
lhand -26.6514 19.2419
lfingers 7.12502
lthumb -0.0834392 49.2217
rfemur -0.826231 10.0992 12.4904
rtibia 2.71964
rfoot -0.405202 -8.90076
rtoes -0.922308
lfemur 1.67821 -6.0385 -18.0039
ltibia 11.94
lfoot -14.4699 9.48762
ltoes -3.87906
334
root 10.7325 18.4496 -12.766 0.942339 -5.61757 0.424387
lowerback -1.24422 -0.628501 -7.44775
upperback 1.01308 -0.605798 -5.61216
thorax 1.7675 -0.360758 -1.64444
lowerneck -4.15655 -10.706 -15.6804
upperneck 8.88864 -14.1069 9.01901
head 5.10323 -7.07483 4.28457
rclavicle 1.6201e-014 -1.27222e-014
rhumerus 7.83778 -45.2543 -9.05308
rradius 30.0448
rwrist -5.65567
rhand -31.0263 38.0414
rfingers 7.12502
rthumb -4.30854 8.10527
lclavicle 1.6201e-014 -1.27222e-014
lhumerus 4.2135 23.2837 1.0556
lradius 48.5408
lwrist 28.3955
lhand -28.0548 20.0806
lfingers 7.12502
lthumb -1.43882 50.0555
rfemur -0.813841 10.0978 12.4647
rtibia 2.47962
rfoot -0.346119 -8.92131
rtoes -1.10416
lfemur 1.61427 -5.97207 -17.9912
ltibia 11.867
lfoot -14.4018 9.4927
ltoes -4.13792
335
root 10.732 18.4516 -12.769 1.05555 -5.62651 0.209983
lowerback -1.14429 -0.612903 -7.10827
upperback 0.981657 -0.606533 -5.59075
thorax 1.67421 -0.354779 -1.8076
lowerneck -4.84264 -10.4105 -15.2426
upperneck 9.38716 -13.6387 8.78344
head 5.26588 -6.82915 4.15544
rclavicle 1.11319e-014 -6.99722e-014
rhumerus 6.23542 -43.3108 -8.03448
rradius 32.1312
rwrist -7.14028
rhand -31.3252 38.1833
rfingers 7.12502
rthumb -4.59716 8.25316
lclavicle 1.11319e-014 -6.99722e-014
lhumerus 3.76102 23.2884 1.56685
lradius 50.2473
lwrist 28.6043
lhand -32.5146 22.6209
lfingers 7.12502
lthumb -5.7456 52.523
rfemur -1.01614 10.0993 12.6925
rtibia 2.62603
rfoot -0.419541 -8.93708
rtoes -1.59089
lfemur 1.57458 -5.984 -17.7359
ltibia 11.747
lfoot -14.4019 9.48311
ltoes -4.36621
336
root 10.732 18.4545 -12.7725 1.15101 -5.61886 0.258682
lowerback -1.09316 -0.616624 -7.06747
upperback 0.949992 -0.620679 -5.61265
thorax 1.61205 -0.359551 -1.85213
lowerneck -5.58938 -10.1698 -14.822
upperneck 10.0416 -13.225 8.37754
head 5.48715 -6.61911 3.96504
rclavicle -1.21259e-014 -6.04305e-014
rhumerus 4.73173 -41.3227 -7.17633
rradius 34.4026
rwrist -8.30201
rhand -32.0332 38.2213
rfingers 7.12502
rthumb -5.28076 8.30706
lclavicle -1.21259e-014 -6.04305e-014
lhumerus 2.80034 23.0715 1.65363
lradius 52.5169
lwrist 29.5247
lhand -27.6333 22.176
lfingers 7.12502
lthumb -1.03175 52.1533
rfemur -1.18366 10.0763 12.6195
rtibia 2.70284
rfoot -0.45941 -8.9289
rtoes -1.51962
lfemur 1.4869 -6.04211 -17.7883
ltibia 11.6669
lfoot -14.3352 9.56218
ltoes -4.45572
337
root 10.7312 18.4564 -12.7818 1.26093 -5.60212 0.414746
lowerback -1.03289 -0.66358 -7.22517
upperback 0.902582 -0.691542 -5.61313
thorax 1.53253 -0.39426 -1.76588
lowerneck -6.43253 -9.90925 -14.3433
upperneck 10.6886 -12.7663 7.87768
head 5.71183 -6.38892 3.7385
rclavicle 1.26228e-014 -8.74653e-014
rhumerus 3.51408 -39.5308 -6.66218
rradius 36.9537
rwrist -9.58293
rhand -32.3102 37.7755
rfingers 7.12502
rthumb -5.54828 7.86816
lclavicle 1.26228e-014 -8.74653e-014
lhumerus 1.53155 22.7512 1.70387
lradius 55.065
lwrist 30.5271
lhand -26.2951 22.4187
lfingers 7.12502
lthumb 0.260748 52.3982
rfemur -1.53312 10.0409 12.4304
rtibia 3.04564
rfoot -0.654228 -8.93134
rtoes -0.642134
lfemur 1.369 -6.00539 -17.9258
ltibia 11.5214
lfoot -14.0791 9.57461
ltoes -4.06076
338
root 10.7294 18.4553 -12.7891 1.34014 -5.59138 0.522324
lowerback -0.840737 -0.679405 -7.27041
upperback 0.771531 -0.745635 -5.6724
thorax 1.28939 -0.414449 -1.79917
lowerneck -6.95997 -9.65051 -13.8361
upperneck 11.0899 -12.371 7.52263
head 5.82606 -6.18806 3.56598
rclavicle -7.85199e-015 1.90833e-014
rhumerus 2.0454 -37.7638 -6.20212
rradius 39.7608
rwrist -11.0796
rhand -31.8902 37.6779
rfingers 7.12502
rthumb -5.14275 7.76026
lclavicle -7.85199e-015 1.90833e-014
lhumerus 0.237448 22.0212 1.64036
lradius 57.8053
lwrist 31.6726
lhand -26.4089 22.785
lfingers 7.12502
lthumb 0.150772 52.7647
rfemur -1.93319 10.019 12.3112
rtibia 3.61628
rfoot -0.905345 -8.99067
rtoes 0.0423376
lfemur 1.34989 -5.99481 -18.0142
ltibia 11.312
lfoot -13.9641 9.62834
ltoes -3.86605
339
root 10.7307 18.4554 -12.7902 1.32148 -5.57499 0.595922
lowerback -0.649186 -0.608516 -7.24039
upperback 0.65857 -0.68399 -5.73507
thorax 1.06178 -0.376912 -1.87559
lowerneck -6.92967 -9.42579 -13.551
upperneck 11.1765 -12.0987 7.44792
head 5.79561 -6.051 3.53093
rclavicle -3.97569e-015 -6.36111e-015
rhumerus 0.126322 -35.9044 -5.50554
rradius 42.9003
rwrist -12.7149
rhand -31.5244 37.9367
rfingers 7.12502
rthumb -4.7895 8.01085
lclavicle -3.97569e-015 -6.36111e-015
lhumerus -0.808491 21.3043 1.96516
lradius 60.6615
lwrist 32.4798
lhand -27.0877 23.6524
lfingers 7.12502
lthumb -0.504795 53.6316
rfemur -2.04388 10.0015 12.2276
rtibia 3.86548
rfoot -1.05585 -8.95906
rtoes -0.712759
lfemur 1.43793 -6.06983 -18.1199
ltibia 11.1864
lfoot -14.067 9.73759
ltoes -3.90041
340
root 10.7323 18.4593 -12.7959 1.28877 -5.63022 0.476969
lowerback -0.559733 -0.507217 -7.14739
upperback 0.657646 -0.561346 -5.63898
thorax 1.00771 -0.314232 -1.82381
lowerneck -7.06253 -9.18005 -13.3352
upperneck 11.426 -11.7657 7.31113
head 5.83904 -5.88786 3.48298
rclavicle -1.04362e-014 6.36111e-015
rhumerus -1.74083 -34.1262 -4.81902
rradius 46.3141
rwrist -14.3957
rhand -31.2342 38.4419
rfingers 7.12502
rthumb -4.50932 8.50987
lclavicle -1.04362e-014 6.36111e-015
lhumerus -1.90892 20.9899 2.66533
lradius 63.6028
lwrist 32.8121
lhand -27.4268 24.2939
lfingers 7.12502
lthumb -0.832326 54.272
rfemur -1.98529 10.0624 12.358
rtibia 3.75376
rfoot -1.01607 -8.80625
rtoes -1.93183
lfemur 1.5305 -6.08909 -18.003
ltibia 11.1155
lfoot -14.0365 9.73287
ltoes -3.81707
